<svg xmlns="http://www.w3.org/2000/svg" viewBox="8 8 186 84" role="img" aria-label="Mi Optica Digital"><defs><linearGradient id="s0" gradientUnits="userSpaceOnUse" x1="82.68" y1="59.37" x2="44.56" y2="83.56"><stop offset="0" stop-color="#7C3AED"/><stop offset="1" stop-color="#4F46E5"/></linearGradient><linearGradient id="s1" gradientUnits="userSpaceOnUse" x1="45.97" y1="83.76" x2="16.01" y2="49.29"><stop offset="0" stop-color="#4F46E5"/><stop offset="1" stop-color="#3B82F6"/></linearGradient><linearGradient id="s2" gradientUnits="userSpaceOnUse" x1="16.01" y1="50.71" x2="45.97" y2="16.24"><stop offset="0" stop-color="#3B82F6"/><stop offset="1" stop-color="#38BDF8"/></linearGradient><linearGradient id="s3" gradientUnits="userSpaceOnUse" x1="44.56" y1="16.44" x2="82.68" y2="40.63"><stop offset="0" stop-color="#38BDF8"/><stop offset="1" stop-color="#22D3EE"/></linearGradient><linearGradient id="sb0" gradientUnits="userSpaceOnUse" x1="86.0" y1="50" x2="190.0" y2="50"><stop offset="0" stop-color="#22D3EE" stop-opacity=".95"/><stop offset="1" stop-color="#22D3EE" stop-opacity="0"/></linearGradient><linearGradient id="sb1" gradientUnits="userSpaceOnUse" x1="86.0" y1="50" x2="190.0" y2="50"><stop offset="0" stop-color="#38BDF8" stop-opacity=".95"/><stop offset="1" stop-color="#38BDF8" stop-opacity="0"/></linearGradient><linearGradient id="sb2" gradientUnits="userSpaceOnUse" x1="86.0" y1="50" x2="190.0" y2="50"><stop offset="0" stop-color="#3B82F6" stop-opacity=".95"/><stop offset="1" stop-color="#3B82F6" stop-opacity="0"/></linearGradient><linearGradient id="sb3" gradientUnits="userSpaceOnUse" x1="86.0" y1="50" x2="190.0" y2="50"><stop offset="0" stop-color="#4F46E5" stop-opacity=".95"/><stop offset="1" stop-color="#4F46E5" stop-opacity="0"/></linearGradient><linearGradient id="sb4" gradientUnits="userSpaceOnUse" x1="86.0" y1="50" x2="190.0" y2="50"><stop offset="0" stop-color="#7C3AED" stop-opacity=".95"/><stop offset="1" stop-color="#7C3AED" stop-opacity="0"/></linearGradient></defs><polygon points="86.0,50.0 190.0,20.00 190.0,32.00" fill="url(#sb0)"/><polygon points="86.0,50.0 190.0,32.00 190.0,44.00" fill="url(#sb1)"/><polygon points="86.0,50.0 190.0,44.00 190.0,56.00" fill="url(#sb2)"/><polygon points="86.0,50.0 190.0,56.00 190.0,68.00" fill="url(#sb3)"/><polygon points="86.0,50.0 190.0,68.00 190.0,80.00" fill="url(#sb4)"/><path d="M 82.68 59.37 A 34.0 34.0 0 0 1 44.56 83.56" fill="none" stroke="url(#s0)" stroke-width="12" stroke-linecap="butt"/><path d="M 45.97 83.76 A 34.0 34.0 0 0 1 16.01 49.29" fill="none" stroke="url(#s1)" stroke-width="12" stroke-linecap="butt"/><path d="M 16.01 50.71 A 34.0 34.0 0 0 1 45.97 16.24" fill="none" stroke="url(#s2)" stroke-width="12" stroke-linecap="butt"/><path d="M 44.56 16.44 A 34.0 34.0 0 0 1 82.68 40.63" fill="none" stroke="url(#s3)" stroke-width="12" stroke-linecap="butt"/></svg>